# xmcd
#
# Track frame offsets:
#	150
#	2025
#	19322
#	36525
#	55308
#	72933
#	92186
#	108757
#	125019
#	179940
#	198879
#	220338
#	242810
#	257323
#	312926
#
# Disc length: 4438 seconds
#
# Revision: 0
# Processed by: cddbd v1.5.2PL0 Copyright (c) Steve Scherf et al.
# Submitted via: dBpowerAMP V4.0
#
DISCID=db11540f
DTITLE=Jill Scott - The Original Jill Scott
DYEAR=1900
DGENRE=
TTITLE0=Intro - Love to Love Prelude
TTITLE1=I Don't Know [Gotta Have You]
TTITLE2=Wondering Why? [You Don't Talk to Me]
TTITLE3=The Light [Original Mix]
TTITLE4=Wake Up Baby
TTITLE5=Lovely Day
TTITLE6=Dear Mr and Mrs Record Industry
TTITLE7=Love to Love
TTITLE8=Running Away [Suite]
TTITLE9=I'm Prettier
TTITLE10=Comes to Light [Everything]
TTITLE11=Holding On
TTITLE12=The Light [Piano Mix]
TTITLE13=And I Heard... [Do You Understand] [LIVE}
TTITLE14=DATA
EXTD=
EXTT0=
EXTT1=
EXTT2=
EXTT3=
EXTT4=
EXTT5=
EXTT6=
EXTT7=
EXTT8=
EXTT9=
EXTT10=
EXTT11=
EXTT12=
EXTT13=
EXTT14=
PLAYORDER=
